<?xml version="1.0" encoding="utf-8"?>
<!-- Generator: Adobe Illustrator 26.0.0, SVG Export Plug-In . SVG Version: 6.00 Build 0)  -->
<svg version="1.1" id="Layer_1" xmlns="http://www.w3.org/2000/svg" xmlns:xlink="http://www.w3.org/1999/xlink" x="0px" y="0px"
	 viewBox="0 0 565 565" style="enable-background:new 0 0 565 565;" xml:space="preserve">
<style type="text/css">
	.st0{fill:none;stroke:#231F20;stroke-width:4.9883;stroke-miterlimit:10;}
	.st1{fill:none;stroke:#231F20;stroke-width:5.0413;stroke-miterlimit:10;}
	.st2{fill:none;stroke:#231F20;stroke-width:5.6712;stroke-miterlimit:10;}
	.st3{fill:none;stroke:#231F20;stroke-width:5.0889;stroke-miterlimit:10;}
	.st4{fill:none;stroke:#231F20;stroke-width:4.336;stroke-miterlimit:10;}
	.st5{fill:#231F20;stroke:#231F20;stroke-miterlimit:10;}
	.st6{stroke:#000000;stroke-miterlimit:10;}
	.st7{stroke:#231F20;stroke-miterlimit:10;}
	.st8{fill:#FFFFFF;stroke:#231F20;stroke-miterlimit:10;}
	.st9{fill:#FFFFFF;}
	.st10{opacity:0.3;}
</style>
<g>
	<g>
		<path class="st6" d="M217.29,238.73c4.29,1.87,10.21,5.39,13.58,12.11c0.3,0.59,0.47,1,0.8,1.78c4.91,11.64,3.84,21.08,4.92,21.15
			c1.24,0.08,4.66-12.22,2.03-26c-0.03-0.18-0.1-0.5-0.18-0.92c-1.09-5.2-2.78-12.83-8.61-17.58c-0.18-0.15-0.42-0.4-0.8-0.61
			c-2.42-1.36-6.05,0.4-7.87,1.84C217.59,233.32,217.32,237.83,217.29,238.73z"/>
		<path class="st6" d="M216.9,243.42c0.39,2.75,1.22,6.47,3.13,10.65c0.08,0.18,0.3,0.66,0.6,1.24c1.29,2.57,3.4,6.02,6.92,9.77
			c-0.86-2.49-1.71-5.65-2.17-9.36c-0.39-3.17-0.41-5.99-0.28-8.34C222.37,246.06,219.64,244.74,216.9,243.42z"/>
		<path class="st6" d="M222.73,226.45c1.8-0.74,3.42-1.04,4.6-1.17c-2.18-2.26-5.83-5.14-10.93-5.11c-0.33,0-0.56,0.02-0.83,0.03
			c-2.9,0.17-7.33,0.99-13.09,4.21c2.74,0.03,7.89,0.18,10.76,0.98c0.35,0.1,0.61,0.19,0.68,0.22c2.21,0.79,3.71,2.21,4.64,3.32
			C219.48,228.17,220.87,227.22,222.73,226.45z"/>
		<path class="st6" d="M209.36,227c-0.05-0.88-5.65-1.99-10.39-0.22c-0.32,0.12-0.58,0.23-1.11,0.46c-3.37,1.46-5.81,3.07-6.55,3.6
			c-6.36,4.55-7.1,11.53-7.1,11.53c-0.11,0.99-0.52,5.68,2.44,9.73c0.53,0.73,3.26,4.46,6.59,4.2c0.33-0.03,1.04-0.09,1.75-0.55
			c1.86-1.21,1.95-4.02,2.03-5.62c0.24-4.81,0.43-8.85,1.48-12.26c0.48-1.56,1.95-6.39,6.15-8.92
			C207.23,227.37,209.39,227.55,209.36,227z"/>
		<path class="st6" d="M217.22,282.38c-5.79-8.14-11.59-16.29-17.38-24.43c-0.57,0.45-1.5,1.06-2.77,1.43
			c-0.23,0.07-1.05,0.29-2.72,0.3c-1.65,0.01-3.13,0.02-4.89-0.62c-1.67-0.61-2.93-1.56-3.83-2.44c-0.91-0.7-3.09-2.59-4.24-5.9
			c-1.09-3.14-0.66-5.83-0.41-6.96c-0.72-0.29-2.83-1.03-5.12-0.18c-0.81,0.3-1.36,0.7-1.66,0.92c-5.82,4.35-9.11,6.81-13.6,11.99
			c-0.62,0.71-1.12,1.32-1.48,1.75c-1.26,1.54-5.25,6.46-8.02,10.97c-0.74,1.21-1.35,2.32-1.75,3.04c-1.43,2.59-2.14,3.93-2.63,5.62
			c-0.28,0.98-0.61,2.47-0.63,4.4C169.81,282.29,193.52,282.34,217.22,282.38z"/>
		<path class="st6" d="M173.03,241.65c1.27,0.06,2.54,0.12,3.81,0.18c1.04-1.65,2.12-3.56,3.14-5.71c1.17-2.48,2.05-4.81,2.7-6.89
			c-0.4,0.01-1.39,0-2.43-0.61c-0.98-0.58-1.47-1.37-1.66-1.72c-0.66,2.39-1.49,4.97-2.52,7.68
			C175.09,237.16,174.06,239.52,173.03,241.65z"/>
		<path class="st6" d="M179.64,226.1c0.33,0.08,0.82,0.23,1.34,0.56c0.47,0.3,0.79,0.64,1,0.88c1.33-2.28,2.79-4.63,4.36-7.04
			c1.33-2.02,2.65-3.94,3.96-5.76c-0.26,0.03-1.41,0.15-2.46-0.63c-0.78-0.58-1.08-1.33-1.18-1.63c-0.84,2.05-1.82,4.22-2.97,6.49
			C182.36,221.6,180.98,223.97,179.64,226.1z"/>
		<path class="st6" d="M188.09,211.19c0.34,0.25,0.73,0.58,1.13,1.01c0.33,0.36,0.58,0.71,0.78,1.01c1.98-1.26,4.06-2.53,6.25-3.8
			c2.22-1.29,4.39-2.48,6.5-3.58c-0.36-0.1-1.56-0.49-2.4-1.71c-0.62-0.9-0.72-1.81-0.74-2.21
			C195.77,205.02,191.93,208.11,188.09,211.19z"/>
		<path class="st6" d="M201.27,201.77c-0.14,0.76,0.86,1.74,2.4,2.47c0.88-0.89,2.06-1.92,3.57-2.88c2.07-1.32,4.03-2.03,5.49-2.44
			c-1.26-0.28-2.36-0.34-3.18-0.34c-1.28,0-2.24,0.17-2.93,0.3c-0.94,0.17-1.74,0.32-2.73,0.76c-0.56,0.25-1.18,0.59-1.79,1.13
			C201.61,201.19,201.34,201.43,201.27,201.77z"/>
		<path class="st6" d="M166.14,247.98c0.55-0.54,1.21-1.12,2-1.69c0.69-0.51,1.36-0.92,1.97-1.26c0.08-4.28,0.17-8.55,0.25-12.83
			c-0.44,0.17-1.28,0.42-2.34,0.32c-1.18-0.11-2.03-0.6-2.43-0.86C165.77,237.1,165.96,242.54,166.14,247.98z"/>
		<path class="st6" d="M167.37,215.07c-0.43,5.16-0.86,10.33-1.29,15.49c0.06,0.09,0.48,0.71,1.29,0.8
			c0.69,0.08,1.19-0.29,1.29-0.37c0.98-5.08,1.97-10.16,2.95-15.24c-0.19,0.13-1.01,0.69-2.15,0.55
			C168.19,216.14,167.49,215.23,167.37,215.07z"/>
		<path class="st6" d="M175.98,200.44c-2.5,4.41-5,8.81-7.5,13.22c0.26,0,0.87,0.04,1.48,0.43c0.41,0.27,0.67,0.59,0.8,0.8
			c3.22-4.02,6.43-8.03,9.65-12.05c-0.23,0.06-1.68,0.41-3.01-0.49C176.43,201.69,176.08,200.75,175.98,200.44z"/>
		<path class="st6" d="M183.15,191.14c-0.72,1.42-1.62,2.98-2.74,4.62c-1.02,1.48-2.04,2.77-3.01,3.87
			c0.05,0.24,0.24,1.05,0.98,1.66c0.94,0.77,2.03,0.64,2.21,0.61c0.98-1.51,1.5-2.87,1.79-3.83c0.45-1.51,0.56-2.78,0.67-4.1
			C183.14,192.83,183.16,191.85,183.15,191.14z"/>
		<path class="st6" d="M155.49,238.63c0.95,1.93,1.89,3.96,2.81,6.09c1.09,2.5,2.07,4.94,2.95,7.28c0.25-0.36,0.76-0.99,1.61-1.48
			c0.83-0.47,1.59-0.6,2.03-0.65c-1.06-1.86-2.2-4.24-3.13-7.1c-0.83-2.55-1.3-4.87-1.57-6.82c-0.37,0.47-1.03,1.17-2.03,1.75
			C157.1,238.33,156.1,238.54,155.49,238.63z"/>
		<path class="st6" d="M148.03,224.66c2.74,4.06,5.47,8.11,8.21,12.17c0.19-0.36,0.52-0.91,1.11-1.43c0.68-0.61,1.39-0.89,1.8-1.01
			c-1.4-1.36-3.29-3.51-4.84-6.55c-1.23-2.41-1.87-4.63-2.21-6.32c-0.13,0.4-0.51,1.34-1.48,2.12
			C149.55,224.49,148.44,224.63,148.03,224.66z"/>
		<path class="st6" d="M135.44,215.94c2.09,0.69,4.6,1.7,7.28,3.23c2.28,1.3,4.16,2.67,5.67,3.92c0.1-0.4,0.29-0.99,0.69-1.61
			c0.33-0.5,0.69-0.86,0.97-1.11c-1.69-0.96-3.58-2.17-5.53-3.69c-2.4-1.87-4.33-3.75-5.85-5.44c-0.18,0.68-0.55,1.73-1.34,2.81
			C136.68,214.95,135.97,215.56,135.44,215.94z"/>
		<path class="st6" d="M128.43,205.57c0.15,1.05,0.54,2.86,1.75,4.75c1.52,2.37,3.49,3.59,4.47,4.1c0.35-0.17,0.94-0.51,1.48-1.13
			c0.51-0.59,0.76-1.18,0.88-1.54c-1.35-0.6-2.98-1.47-4.7-2.72C130.67,207.84,129.4,206.62,128.43,205.57z"/>
		<path class="st6" d="M130,243.1c2.38,0.74,4.88,1.59,7.47,2.58c2.26,0.86,4.4,1.75,6.42,2.65c0.12-0.04,0.83-0.27,1.2-1.02
			c0.36-0.73,0.14-1.41,0.09-1.54c-1.85-0.61-3.89-1.39-6.05-2.42c-2.74-1.3-5.07-2.71-7.01-4.03c0.04,0.28,0.18,1.32-0.46,2.37
			C131.1,242.61,130.28,242.98,130,243.1z"/>
		<path class="st6" d="M144.57,249.67c4.28,2.36,8.56,4.71,12.85,7.07c0.23-0.51,0.62-1.2,1.23-1.91c0.54-0.62,1.1-1.06,1.54-1.35
			c-2.01-0.78-4.31-1.83-6.76-3.26c-2.56-1.5-4.68-3.06-6.39-4.49c-0.03,0.44-0.14,1.24-0.61,2.09
			C145.81,248.9,144.96,249.45,144.57,249.67z"/>
	</g>
	<path class="st6" d="M217.41,326.27c4.29-1.87,10.21-5.39,13.58-12.11c0.3-0.59,0.47-1,0.8-1.78c4.91-11.64,3.84-21.08,4.92-21.15
		c1.24-0.08,4.66,12.22,2.03,26c-0.03,0.18-0.1,0.5-0.18,0.92c-1.09,5.2-2.78,12.83-8.61,17.58c-0.18,0.15-0.42,0.4-0.8,0.61
		c-2.42,1.36-6.05-0.4-7.87-1.84C217.72,331.68,217.45,327.17,217.41,326.27z"/>
	<path class="st6" d="M217.03,321.58c0.39-2.75,1.22-6.47,3.13-10.65c0.08-0.18,0.3-0.66,0.6-1.24c1.29-2.57,3.4-6.02,6.92-9.77
		c-0.86,2.49-1.71,5.65-2.17,9.36c-0.39,3.17-0.41,5.99-0.28,8.34C222.5,318.94,219.76,320.26,217.03,321.58z"/>
	<path class="st6" d="M222.85,338.55c1.8,0.74,3.42,1.04,4.6,1.17c-2.18,2.26-5.83,5.14-10.93,5.11c-0.33,0-0.56-0.02-0.83-0.03
		c-2.9-0.17-7.33-0.99-13.09-4.21c2.74-0.03,7.89-0.18,10.76-0.98c0.35-0.1,0.61-0.19,0.68-0.22c2.21-0.79,3.71-2.21,4.64-3.32
		C219.61,336.83,221,337.78,222.85,338.55z"/>
	<path class="st6" d="M209.49,338c-0.05,0.88-5.65,1.99-10.39,0.22c-0.32-0.12-0.58-0.23-1.11-0.46c-3.37-1.46-5.81-3.07-6.55-3.6
		c-6.36-4.55-7.1-11.53-7.1-11.53c-0.11-0.99-0.52-5.68,2.44-9.73c0.53-0.73,3.26-4.46,6.59-4.2c0.33,0.03,1.04,0.09,1.75,0.55
		c1.86,1.21,1.95,4.02,2.03,5.62c0.24,4.81,0.43,8.85,1.48,12.26c0.48,1.56,1.95,6.39,6.15,8.92
		C207.36,337.63,209.51,337.45,209.49,338z"/>
	<path class="st6" d="M217.35,282.62c-5.79,8.14-11.59,16.29-17.38,24.43c-0.57-0.45-1.5-1.06-2.77-1.43
		c-0.23-0.07-1.05-0.29-2.72-0.3c-1.65-0.01-3.13-0.02-4.89,0.62c-1.67,0.61-2.93,1.56-3.83,2.44c-0.91,0.7-3.09,2.59-4.24,5.9
		c-1.09,3.14-0.66,5.83-0.41,6.96c-0.72,0.29-2.83,1.03-5.12,0.18c-0.81-0.3-1.36-0.7-1.66-0.92c-5.82-4.35-9.11-6.81-13.6-11.99
		c-0.62-0.71-1.12-1.32-1.48-1.75c-1.26-1.54-5.25-6.46-8.02-10.97c-0.74-1.21-1.35-2.32-1.75-3.04c-1.38-2.5-2.09-3.84-2.63-5.62
		c-0.33-1.08-0.72-2.74-0.76-4.89C169.85,282.38,193.6,282.5,217.35,282.62z"/>
	<path class="st6" d="M173.15,323.35c1.27-0.06,2.54-0.12,3.81-0.18c1.04,1.65,2.12,3.56,3.14,5.71c1.17,2.48,2.05,4.81,2.7,6.89
		c-0.4-0.01-1.39,0-2.43,0.61c-0.98,0.58-1.47,1.37-1.66,1.72c-0.66-2.39-1.49-4.97-2.52-7.68
		C175.22,327.84,174.19,325.48,173.15,323.35z"/>
	<path class="st6" d="M179.76,338.9c0.33-0.08,0.82-0.23,1.34-0.56c0.47-0.3,0.79-0.64,1-0.88c1.33,2.28,2.79,4.63,4.36,7.04
		c1.33,2.02,2.65,3.94,3.96,5.76c-0.26-0.03-1.41-0.15-2.46,0.63c-0.78,0.58-1.08,1.33-1.18,1.63c-0.84-2.05-1.82-4.22-2.97-6.49
		C182.48,343.4,181.11,341.03,179.76,338.9z"/>
	<path class="st6" d="M188.21,353.81c0.34-0.25,0.73-0.58,1.13-1.01c0.33-0.36,0.58-0.71,0.78-1.01c1.98,1.26,4.06,2.53,6.25,3.8
		c2.22,1.29,4.39,2.48,6.5,3.58c-0.36,0.1-1.56,0.49-2.4,1.71c-0.62,0.9-0.72,1.81-0.74,2.21
		C195.9,359.98,192.06,356.89,188.21,353.81z"/>
	<path class="st6" d="M201.4,363.23c-0.14-0.76,0.86-1.74,2.4-2.47c0.88,0.89,2.06,1.92,3.57,2.88c2.07,1.32,4.03,2.03,5.49,2.44
		c-1.26,0.28-2.36,0.34-3.18,0.34c-1.28,0-2.24-0.17-2.93-0.3c-0.94-0.17-1.74-0.32-2.73-0.76c-0.56-0.25-1.18-0.59-1.79-1.13
		C201.73,363.81,201.46,363.57,201.4,363.23z"/>
	<path class="st6" d="M166.27,317.02c0.55,0.54,1.21,1.12,2,1.69c0.69,0.51,1.36,0.92,1.97,1.26c0.08,4.28,0.17,8.55,0.25,12.83
		c-0.44-0.17-1.28-0.42-2.34-0.32c-1.18,0.11-2.03,0.6-2.43,0.86C165.9,327.9,166.09,322.46,166.27,317.02z"/>
	<path class="st6" d="M167.5,349.93c-0.43-5.16-0.86-10.33-1.29-15.49c0.06-0.09,0.48-0.71,1.29-0.8c0.69-0.08,1.19,0.29,1.29,0.37
		c0.98,5.08,1.97,10.16,2.95,15.24c-0.19-0.13-1.01-0.69-2.15-0.55C168.31,348.86,167.62,349.77,167.5,349.93z"/>
	<path class="st6" d="M176.11,364.56c-2.5-4.41-5-8.81-7.5-13.22c0.26,0,0.87-0.04,1.48-0.43c0.41-0.27,0.67-0.59,0.8-0.8
		c3.22,4.02,6.43,8.03,9.65,12.05c-0.23-0.06-1.68-0.41-3.01,0.49C176.55,363.31,176.21,364.25,176.11,364.56z"/>
	<path class="st6" d="M183.27,373.86c-0.72-1.42-1.62-2.98-2.74-4.62c-1.02-1.48-2.04-2.77-3.01-3.87c0.05-0.24,0.24-1.05,0.98-1.66
		c0.94-0.77,2.03-0.64,2.21-0.61c0.98,1.51,1.5,2.87,1.79,3.83c0.45,1.51,0.56,2.78,0.67,4.1
		C183.27,372.17,183.28,373.15,183.27,373.86z"/>
	<path class="st6" d="M155.62,326.37c0.95-1.93,1.89-3.96,2.81-6.09c1.09-2.5,2.07-4.94,2.95-7.28c0.25,0.36,0.76,0.99,1.61,1.48
		c0.83,0.47,1.59,0.6,2.03,0.65c-1.06,1.86-2.2,4.24-3.13,7.1c-0.83,2.55-1.3,4.87-1.57,6.82c-0.37-0.47-1.03-1.17-2.03-1.75
		C157.23,326.67,156.23,326.46,155.62,326.37z"/>
	<path class="st6" d="M148.15,340.34c2.74-4.06,5.47-8.11,8.21-12.17c0.19,0.36,0.52,0.91,1.11,1.43c0.68,0.61,1.39,0.89,1.8,1.01
		c-1.4,1.36-3.29,3.51-4.84,6.55c-1.23,2.41-1.87,4.63-2.21,6.32c-0.13-0.4-0.51-1.34-1.48-2.12
		C149.68,340.51,148.56,340.37,148.15,340.34z"/>
	<path class="st6" d="M135.57,349.06c2.09-0.69,4.6-1.7,7.28-3.23c2.28-1.3,4.16-2.67,5.67-3.92c0.1,0.4,0.29,0.99,0.69,1.61
		c0.33,0.5,0.69,0.86,0.97,1.11c-1.69,0.96-3.58,2.17-5.53,3.69c-2.4,1.87-4.33,3.75-5.85,5.44c-0.18-0.68-0.55-1.73-1.34-2.81
		C136.8,350.05,136.09,349.44,135.57,349.06z"/>
	<path class="st6" d="M128.56,359.43c0.15-1.05,0.54-2.86,1.75-4.75c1.52-2.37,3.49-3.59,4.47-4.1c0.35,0.17,0.94,0.51,1.48,1.13
		c0.51,0.59,0.76,1.18,0.88,1.54c-1.35,0.6-2.98,1.47-4.7,2.72C130.8,357.16,129.52,358.38,128.56,359.43z"/>
	<path class="st6" d="M130.13,321.9c2.38-0.74,4.88-1.59,7.47-2.58c2.26-0.86,4.4-1.75,6.42-2.65c0.12,0.04,0.83,0.27,1.2,1.02
		c0.36,0.73,0.14,1.41,0.09,1.54c-1.85,0.61-3.89,1.39-6.05,2.42c-2.74,1.3-5.07,2.71-7.01,4.03c0.04-0.28,0.18-1.32-0.46-2.37
		C131.23,322.39,130.41,322.02,130.13,321.9z"/>
	<path class="st6" d="M144.69,315.33c4.28-2.36,8.56-4.71,12.85-7.07c0.23,0.51,0.62,1.2,1.23,1.91c0.54,0.62,1.1,1.06,1.54,1.35
		c-2.01,0.78-4.31,1.83-6.76,3.26c-2.56,1.5-4.68,3.06-6.39,4.49c-0.03-0.44-0.14-1.24-0.61-2.09
		C145.94,316.1,145.09,315.55,144.69,315.33z"/>
</g>
<g>
	<g>
		<path d="M242.58,300.71v-11.2h2.14l4.77,7.9h-1.14l4.67-7.9h2.16v11.2h-2.42l-0.03-7.47h0.48l-3.78,6.27h-1.15l-3.82-6.27H245
			v7.47H242.58z"/>
		<path d="M256.39,300.71l4.98-11.2h2.56l5.02,11.2h-2.72l-4.11-9.89h1.04l-4.11,9.89H256.39z M258.9,298.31l0.66-1.97h5.79
			l0.67,1.97H258.9z"/>
		<path d="M270.12,300.71v-11.2h2.58v11.2H270.12z M272.42,298.15l-0.13-2.99l5.36-5.65h2.88l-4.82,5.2l-1.47,1.54L272.42,298.15z
			 M277.78,300.71l-3.98-4.86l1.7-1.86l5.33,6.72H277.78z"/>
		<path d="M284.53,298.63h6.1v2.08h-8.67v-11.2h8.46v2.08h-5.89V298.63z M284.34,294.01h5.39v2.03h-5.39V294.01z"/>
		<path d="M297.22,300.71v-11.2h2.61v11.2H297.22z"/>
		<path d="M304.79,300.71v-9.09h-3.58v-2.11h9.76v2.11h-3.58v9.09H304.79z"/>
		<path d="M316.88,300.71v-11.2h4.85c1,0,1.87,0.16,2.59,0.49c0.73,0.33,1.29,0.79,1.68,1.4c0.39,0.61,0.59,1.33,0.59,2.16
			c0,0.84-0.2,1.57-0.59,2.17c-0.39,0.6-0.96,1.07-1.68,1.4c-0.72,0.33-1.59,0.5-2.59,0.5h-3.42l1.18-1.17v4.26H316.88z
			 M319.49,296.75l-1.18-1.23h3.28c0.79,0,1.39-0.17,1.79-0.51s0.61-0.82,0.61-1.44c0-0.62-0.2-1.1-0.61-1.43s-1-0.5-1.79-0.5h-3.28
			l1.18-1.23V296.75z"/>
		<path d="M334.03,300.91c-0.88,0-1.7-0.14-2.45-0.43c-0.75-0.29-1.4-0.69-1.95-1.22s-0.98-1.14-1.29-1.84s-0.46-1.47-0.46-2.3
			c0-0.84,0.15-1.61,0.46-2.31c0.3-0.7,0.73-1.31,1.29-1.83s1.2-0.93,1.94-1.22c0.74-0.29,1.55-0.43,2.44-0.43s1.7,0.14,2.44,0.42
			c0.74,0.28,1.39,0.68,1.94,1.21c0.55,0.52,0.98,1.14,1.29,1.84s0.46,1.48,0.46,2.32c0,0.83-0.15,1.6-0.46,2.31
			c-0.3,0.71-0.73,1.33-1.29,1.85c-0.55,0.52-1.2,0.93-1.94,1.21C335.72,300.76,334.91,300.91,334.03,300.91z M334.02,298.71
			c0.5,0,0.96-0.09,1.38-0.26c0.42-0.18,0.79-0.43,1.11-0.75s0.57-0.7,0.74-1.14c0.18-0.43,0.26-0.91,0.26-1.45
			s-0.09-1.02-0.26-1.45c-0.18-0.43-0.42-0.81-0.74-1.14s-0.69-0.58-1.11-0.75c-0.42-0.18-0.88-0.26-1.38-0.26s-0.97,0.09-1.39,0.26
			c-0.43,0.18-0.8,0.43-1.11,0.75s-0.56,0.7-0.74,1.14c-0.18,0.43-0.26,0.92-0.26,1.45s0.09,1.02,0.26,1.45
			c0.18,0.43,0.42,0.81,0.74,1.14s0.69,0.58,1.11,0.75C333.05,298.63,333.52,298.71,334.02,298.71z"/>
		<path d="M345.8,300.91c-0.9,0-1.76-0.12-2.58-0.36c-0.83-0.24-1.49-0.55-1.99-0.94l0.88-1.95c0.47,0.34,1.03,0.62,1.7,0.84
			c0.66,0.22,1.33,0.33,2,0.33c0.51,0,0.92-0.05,1.24-0.16s0.55-0.25,0.7-0.42c0.15-0.18,0.22-0.38,0.22-0.62
			c0-0.3-0.12-0.54-0.35-0.71s-0.55-0.32-0.94-0.43c-0.39-0.11-0.81-0.22-1.27-0.32c-0.46-0.1-0.92-0.22-1.38-0.37
			c-0.46-0.14-0.89-0.34-1.28-0.58s-0.7-0.55-0.93-0.94c-0.23-0.39-0.34-0.88-0.34-1.46c0-0.64,0.17-1.22,0.51-1.75
			c0.34-0.53,0.86-0.95,1.56-1.26c0.7-0.31,1.58-0.47,2.63-0.47c0.7,0,1.4,0.09,2.09,0.26c0.69,0.17,1.29,0.42,1.8,0.74l-0.82,1.95
			c-0.5-0.29-1.02-0.5-1.55-0.65c-0.53-0.14-1.05-0.21-1.54-0.21c-0.51,0-0.92,0.06-1.23,0.17c-0.31,0.11-0.54,0.26-0.68,0.46
			c-0.14,0.19-0.22,0.41-0.22,0.64c0,0.3,0.12,0.54,0.35,0.72c0.24,0.18,0.54,0.32,0.93,0.42c0.38,0.1,0.81,0.2,1.28,0.3
			c0.47,0.1,0.93,0.23,1.39,0.38c0.46,0.15,0.88,0.34,1.26,0.57c0.38,0.23,0.7,0.54,0.94,0.93c0.24,0.39,0.36,0.87,0.36,1.45
			c0,0.63-0.17,1.21-0.52,1.73s-0.87,0.94-1.58,1.26S346.85,300.91,345.8,300.91z"/>
		<path d="M356,300.91c-0.9,0-1.76-0.12-2.58-0.36c-0.83-0.24-1.49-0.55-1.99-0.94l0.88-1.95c0.47,0.34,1.03,0.62,1.7,0.84
			c0.66,0.22,1.33,0.33,2,0.33c0.51,0,0.92-0.05,1.24-0.16s0.55-0.25,0.7-0.42c0.15-0.18,0.22-0.38,0.22-0.62
			c0-0.3-0.12-0.54-0.35-0.71s-0.55-0.32-0.94-0.43c-0.39-0.11-0.81-0.22-1.27-0.32c-0.46-0.1-0.92-0.22-1.38-0.37
			c-0.46-0.14-0.89-0.34-1.28-0.58s-0.7-0.55-0.93-0.94c-0.23-0.39-0.34-0.88-0.34-1.46c0-0.64,0.17-1.22,0.51-1.75
			c0.34-0.53,0.86-0.95,1.56-1.26c0.7-0.31,1.58-0.47,2.63-0.47c0.7,0,1.4,0.09,2.09,0.26c0.69,0.17,1.29,0.42,1.8,0.74l-0.82,1.95
			c-0.5-0.29-1.02-0.5-1.55-0.65c-0.53-0.14-1.05-0.21-1.54-0.21c-0.51,0-0.92,0.06-1.23,0.17c-0.31,0.11-0.54,0.26-0.68,0.46
			c-0.14,0.19-0.22,0.41-0.22,0.64c0,0.3,0.12,0.54,0.35,0.72c0.24,0.18,0.54,0.32,0.93,0.42c0.38,0.1,0.81,0.2,1.28,0.3
			c0.47,0.1,0.93,0.23,1.39,0.38c0.46,0.15,0.88,0.34,1.26,0.57c0.38,0.23,0.7,0.54,0.94,0.93c0.24,0.39,0.36,0.87,0.36,1.45
			c0,0.63-0.17,1.21-0.52,1.73s-0.87,0.94-1.58,1.26S357.06,300.91,356,300.91z"/>
		<path d="M362.52,300.71v-11.2h2.61v11.2H362.52z"/>
		<path d="M367.76,300.71v-11.2h5.47c1.41,0,2.47,0.27,3.18,0.8c0.71,0.53,1.06,1.24,1.06,2.11c0,0.59-0.14,1.1-0.43,1.53
			c-0.29,0.43-0.69,0.77-1.19,1s-1.08,0.35-1.72,0.35l0.3-0.67c0.7,0,1.33,0.12,1.86,0.35c0.54,0.23,0.96,0.58,1.27,1.02
			s0.46,1,0.46,1.65c0,0.96-0.38,1.71-1.14,2.25c-0.76,0.54-1.87,0.81-3.34,0.81H367.76z M370.34,298.76h3.04
			c0.66,0,1.17-0.11,1.52-0.34c0.35-0.22,0.53-0.57,0.53-1.04c0-0.48-0.18-0.83-0.53-1.06c-0.35-0.22-0.86-0.34-1.52-0.34h-3.23
			v-1.89h2.77c0.63,0,1.11-0.11,1.45-0.33s0.5-0.55,0.5-1c0-0.45-0.17-0.78-0.5-0.99c-0.34-0.21-0.82-0.32-1.45-0.32h-2.58V298.76z"
			/>
		<path d="M380,300.71v-11.2h2.61v9.09h5.58v2.11H380z"/>
		<path d="M392.24,298.63h6.1v2.08h-8.67v-11.2h8.46v2.08h-5.89V298.63z M392.05,294.01h5.39v2.03h-5.39V294.01z"/>
	</g>
</g>
<g>
	<g class="st10">
		<path d="M267.47,278.59h0.81c1.88,0,3.4-1.5,3.4-3.34V261.5h-4.2V278.59z"/>
		<path d="M277.05,282.38h-9.58v2.98h12.61v0C280.08,283.72,278.72,282.38,277.05,282.38z"/>
	</g>
	<g>
		<path d="M265.54,277.69h0.81c1.88,0,3.4-1.5,3.4-3.34V260.6h-4.2V277.69z"/>
		<path d="M275.12,281.48h-9.58v2.98h12.61l0,0C278.15,282.82,276.79,281.48,275.12,281.48z"/>
	</g>
</g>
<g>
	<g class="st10">
		<path d="M292,261.51l-4.56,12.06h1.8c1.44,0,2.73-0.9,3.21-2.25l2.14-6.06l4.29,12.15H286l-3.03,8.02l0,0
			c2.69,0,5.09-1.67,5.98-4.18l0.3-0.85h15.08l-7.11-18.9H292z"/>
	</g>
	<g>
		<path d="M290.08,260.6l-4.56,12.06h1.8c1.44,0,2.73-0.9,3.21-2.25l2.14-6.06l4.29,12.15h-12.89l-3.03,8.02l0,0
			c2.69,0,5.09-1.67,5.98-4.18l0.3-0.85h15.08l-7.11-18.9H290.08z"/>
	</g>
</g>
<g>
	<g class="st10">
		<path d="M387.34,275.54c1.89-0.4,3.35-1.19,4.33-2.37c0.99-1.17,1.49-2.65,1.49-4.4c0-2.14-0.73-3.89-2.16-5.2
			c-1.44-1.31-3.59-1.97-6.38-1.97h-9.14v0.02c0,1.83,1.52,3.32,3.4,3.32h5.32c1.57,0,2.76,0.37,3.52,1.1
			c0.78,0.73,1.17,1.75,1.17,3.04c0,2.19-1.1,3.57-3.19,3.97c-0.37,0.07-0.78,0.11-1.23,0.12c-0.09,0-0.18,0-0.28,0h-0.66v4.26
			l4.82,7.86h4.59l-6.16-9.65L387.34,275.54z"/>
		<path d="M375.48,285.31h4.2v-8.8c0-1.83-1.52-3.32-3.4-3.32h-0.81V285.31z"/>
	</g>
	<g>
		<path d="M385.41,274.64c1.89-0.4,3.35-1.19,4.33-2.37c0.99-1.17,1.49-2.65,1.49-4.4c0-2.14-0.73-3.89-2.16-5.2
			c-1.44-1.31-3.59-1.97-6.38-1.97h-9.14v0.02c0,1.83,1.52,3.32,3.4,3.32h5.32c1.57,0,2.76,0.37,3.52,1.1
			c0.78,0.73,1.17,1.75,1.17,3.04c0,2.19-1.1,3.57-3.19,3.97c-0.37,0.07-0.78,0.11-1.23,0.12c-0.09,0-0.18,0-0.28,0h-0.66v4.26
			l4.82,7.86h4.59l-6.16-9.65L385.41,274.64z"/>
		<path d="M373.55,284.41h4.2v-8.8c0-1.83-1.52-3.32-3.4-3.32h-0.81V284.41z"/>
	</g>
</g>
<g>
	<g class="st10">
		<path d="M257.98,275.8c0.81,0.67,1.22,1.64,1.22,2.88c0,1.23-0.41,2.19-1.21,2.85c-0.78,0.64-1.89,0.96-3.31,0.96l0,0
			c-1.66,0-3.01,1.35-3.01,3.01v0.27h4c2.56,0,4.54-0.58,5.86-1.73c1.31-1.13,1.97-2.71,1.97-4.68c0-1.41-0.43-2.66-1.27-3.7
			c-0.86-1.06-1.97-1.72-3.41-2.01l-1.79-0.36l1.78-0.42c1.24-0.29,2.24-0.9,3-1.82c0.75-0.91,1.13-2.12,1.13-3.58
			c0-1.9-0.62-3.33-1.89-4.37c-1.29-1.05-3.17-1.58-5.59-1.58h-10.14v6.65h0.81c1.88,0,3.4-1.52,3.4-3.4v-0.04h4.83
			c1.42,0,2.5,0.32,3.21,0.95c0.72,0.64,1.09,1.56,1.09,2.71c0,1.16-0.37,2.07-1.11,2.7c-0.73,0.62-1.78,0.93-3.12,0.93h-9.11v2.78
			h9.32C256.06,274.8,257.18,275.14,257.98,275.8z"/>
	</g>
	<g>
		<path d="M256.05,274.89c0.81,0.67,1.22,1.64,1.22,2.88c0,1.23-0.41,2.19-1.21,2.85c-0.78,0.64-1.89,0.96-3.31,0.96l0,0
			c-1.66,0-3.01,1.35-3.01,3.01v0.27h4c2.56,0,4.54-0.58,5.86-1.73c1.31-1.13,1.97-2.71,1.97-4.68c0-1.41-0.43-2.66-1.27-3.7
			c-0.86-1.06-1.97-1.72-3.41-2.01l-1.79-0.36l1.78-0.42c1.24-0.29,2.24-0.9,3-1.82c0.75-0.91,1.13-2.12,1.13-3.58
			c0-1.9-0.62-3.33-1.89-4.37c-1.29-1.05-3.17-1.58-5.59-1.58H243.4v6.65h0.81c1.88,0,3.4-1.52,3.4-3.4v-0.04h4.83
			c1.42,0,2.5,0.32,3.21,0.95c0.72,0.64,1.09,1.56,1.09,2.71c0,1.16-0.37,2.07-1.11,2.7c-0.73,0.62-1.78,0.93-3.12,0.93h-9.11v2.78
			h9.32C254.14,273.89,255.25,274.22,256.05,274.89z"/>
	</g>
</g>
<g>
	<g class="st10">
		<path d="M404.13,261.66L399.57,274h1.8c1.44,0,2.73-0.92,3.21-2.3l2.14-6.2l4.29,12.43h-12.89l-3.03,8.21l0,0
			c2.69,0,5.09-1.71,5.98-4.27l0.3-0.87h15.08l-7.11-19.34H404.13z"/>
	</g>
	<g>
		<path d="M402.2,260.74l-4.56,12.34h1.8c1.44,0,2.73-0.92,3.21-2.3l2.14-6.2l4.29,12.43H396.2l-3.03,8.21l0,0
			c2.69,0,5.09-1.71,5.98-4.27l0.3-0.87h15.08l-7.11-19.34H402.2z"/>
	</g>
</g>
<g>
	<g class="st10">
		<path d="M431.03,275.56c0.81,0.66,1.22,1.61,1.22,2.81c0,1.2-0.41,2.14-1.21,2.79c-0.78,0.62-1.89,0.94-3.31,0.94l0,0
			c-1.66,0-3.01,1.32-3.01,2.94v0.27h4c2.56,0,4.54-0.57,5.86-1.69c1.31-1.11,1.97-2.65,1.97-4.58c0-1.38-0.43-2.6-1.27-3.62
			c-0.86-1.04-1.97-1.68-3.41-1.97l-1.79-0.36l1.78-0.41c1.24-0.28,2.24-0.88,3-1.78c0.75-0.89,1.13-2.07,1.13-3.5
			c0-1.86-0.62-3.26-1.89-4.28c-1.29-1.02-3.17-1.54-5.59-1.54h-10.14v6.5h0.81c1.88,0,3.4-1.49,3.4-3.32v-0.04h4.83
			c1.42,0,2.5,0.31,3.21,0.93c0.72,0.63,1.09,1.52,1.09,2.65c0,1.13-0.37,2.02-1.11,2.64c-0.73,0.6-1.78,0.91-3.12,0.91h-9.11v2.72
			h9.32C429.12,274.59,430.24,274.91,431.03,275.56z"/>
	</g>
	<g>
		<path d="M429.11,274.67c0.81,0.66,1.22,1.61,1.22,2.81c0,1.2-0.41,2.14-1.21,2.79c-0.78,0.62-1.89,0.94-3.31,0.94l0,0
			c-1.66,0-3.01,1.32-3.01,2.94v0.27h4c2.56,0,4.54-0.57,5.86-1.69c1.31-1.11,1.97-2.65,1.97-4.58c0-1.38-0.43-2.6-1.27-3.62
			c-0.86-1.04-1.97-1.68-3.41-1.97l-1.79-0.36l1.78-0.41c1.24-0.28,2.24-0.88,3-1.78c0.75-0.89,1.13-2.07,1.13-3.5
			c0-1.86-0.62-3.26-1.89-4.28c-1.29-1.02-3.17-1.54-5.59-1.54h-10.14v6.5h0.81c1.88,0,3.4-1.49,3.4-3.32v-0.04h4.83
			c1.42,0,2.5,0.31,3.21,0.93c0.72,0.63,1.09,1.52,1.09,2.65c0,1.13-0.37,2.02-1.11,2.64c-0.73,0.6-1.78,0.91-3.12,0.91h-9.11v2.72
			h9.32C427.19,273.69,428.31,274.02,429.11,274.67z"/>
	</g>
</g>
<g>
	<g>
		<path d="M325.7,282.38c-0.64,0.52-1.39,0.98-2.26,1.38c-0.75,0.33-1.66,0.64-2.72,0.92c-1.06,0.28-2.28,0.42-3.64,0.42
			c-0.26,0-0.5-0.02-0.75-0.03c0-1.73,0-3.45,0-5.18c0.83,0.13,1.51,0.1,1.98,0.06c0.64-0.06,1.13-0.2,1.85-0.39
			c0.74-0.2,1.3-0.41,1.57-0.5c0.64-0.24,1.2-0.5,1.68-0.73C324.16,279.67,324.93,281.03,325.7,282.38z M316.32,264.87
			c0.33,0.05,0.83,0.13,1.43,0.25c1.21,0.24,1.82,0.36,2.6,0.67c0.72,0.29,1.28,0.61,1.68,0.84c0.49,0.28,0.88,0.55,1.17,0.76
			c0.72-1.51,1.43-3.02,2.15-4.53c-0.64-0.45-1.39-0.86-2.26-1.24c-0.76-0.33-1.66-0.62-2.71-0.88c-1.05-0.26-2.25-0.39-3.59-0.39
			c-0.16,0-0.31,0.02-0.47,0.02C316.32,261.87,316.32,263.37,316.32,264.87z M314.03,279.39c-0.35-0.1-0.84-0.27-1.38-0.56
			c-0.8-0.43-1.3-0.92-1.62-1.23c-0.31-0.3-0.69-0.68-1.06-1.29c-0.24-0.39-0.38-0.72-0.45-0.89c-0.06-0.15-0.25-0.62-0.39-1.29
			c-0.04-0.21-0.13-0.67-0.17-1.4c-0.04-0.75-0.07-1.49,0.11-2.35c0.27-1.24,0.85-2.08,1.12-2.46c1.14-1.61,2.66-2.34,3.4-2.63
			c0.15-1.55,0.3-3.11,0.44-4.66c-0.7,0.14-1.39,0.33-2.06,0.59c-1.51,0.58-2.83,1.41-3.96,2.49c-1.13,1.09-2.03,2.39-2.69,3.91
			c-0.66,1.52-0.99,3.22-0.99,5.11c0,1.84,0.32,3.52,0.96,5.04c0.64,1.52,1.52,2.82,2.65,3.91c1.13,1.08,2.48,1.93,4.03,2.53
			c0.66,0.25,1.35,0.44,2.06,0.59C314.03,282.99,314.03,281.19,314.03,279.39z"/>
	</g>
</g>
<g>
	<g>
		<path d="M370.92,282.36c-0.64,0.52-1.39,0.98-2.26,1.38c-0.75,0.33-1.66,0.64-2.72,0.92c-1.06,0.28-2.28,0.42-3.64,0.42
			c-0.26,0-0.5-0.02-0.75-0.03c0-1.73,0-3.45,0-5.18c0.83,0.13,1.51,0.1,1.98,0.06c0.64-0.06,1.13-0.2,1.85-0.39
			c0.74-0.2,1.3-0.41,1.57-0.5c0.64-0.24,1.2-0.49,1.68-0.73C369.39,279.66,370.16,281.01,370.92,282.36z M361.55,264.86
			c0.33,0.05,0.83,0.13,1.42,0.25c1.21,0.24,1.82,0.36,2.6,0.67c0.72,0.29,1.28,0.61,1.68,0.84c0.49,0.28,0.88,0.55,1.17,0.75
			c0.72-1.51,1.43-3.02,2.15-4.53c-0.64-0.45-1.39-0.86-2.26-1.24c-0.76-0.33-1.66-0.62-2.71-0.88c-1.05-0.26-2.25-0.39-3.59-0.39
			c-0.16,0-0.31,0.02-0.47,0.02C361.55,261.86,361.55,263.36,361.55,264.86z M359.26,279.37c-0.35-0.1-0.84-0.27-1.38-0.56
			c-0.79-0.43-1.3-0.92-1.62-1.23c-0.31-0.3-0.69-0.68-1.06-1.29c-0.24-0.39-0.38-0.72-0.45-0.89c-0.06-0.15-0.25-0.62-0.39-1.29
			c-0.04-0.21-0.13-0.67-0.17-1.4c-0.04-0.75-0.07-1.49,0.11-2.35c0.27-1.24,0.85-2.08,1.12-2.46c1.14-1.61,2.66-2.34,3.4-2.63
			c0.15-1.55,0.3-3.11,0.44-4.66c-0.7,0.14-1.39,0.33-2.06,0.59c-1.51,0.58-2.83,1.41-3.96,2.49c-1.13,1.08-2.03,2.39-2.69,3.91
			c-0.66,1.52-0.99,3.22-0.99,5.11c0,1.84,0.32,3.52,0.96,5.04c0.64,1.52,1.52,2.82,2.65,3.91c1.13,1.08,2.48,1.93,4.03,2.53
			c0.66,0.25,1.35,0.44,2.06,0.59C359.26,282.97,359.26,281.17,359.26,279.37z"/>
	</g>
</g>
<g class="st10">
	<g>
		<path d="M327,282.08c-0.64,0.51-1.39,0.96-2.26,1.36c-0.75,0.33-1.66,0.63-2.72,0.91c-1.06,0.28-2.28,0.42-3.64,0.42
			c-0.26,0-0.5-0.02-0.75-0.03c0-1.7,0-3.4,0-5.11c0.83,0.13,1.51,0.1,1.98,0.06c0.64-0.06,1.13-0.19,1.85-0.39
			c0.74-0.2,1.3-0.4,1.57-0.5c0.64-0.24,1.2-0.49,1.68-0.72C325.46,279.41,326.23,280.75,327,282.08z M317.62,264.83
			c0.33,0.05,0.83,0.13,1.43,0.25c1.21,0.24,1.82,0.36,2.6,0.66c0.72,0.28,1.28,0.6,1.68,0.83c0.49,0.28,0.88,0.54,1.17,0.74
			c0.72-1.49,1.43-2.98,2.15-4.46c-0.64-0.44-1.39-0.85-2.26-1.22c-0.76-0.33-1.66-0.61-2.71-0.87c-1.05-0.26-2.25-0.38-3.59-0.38
			c-0.16,0-0.31,0.01-0.47,0.02C317.62,261.87,317.62,263.35,317.62,264.83z M315.33,279.13c-0.35-0.1-0.84-0.26-1.38-0.55
			c-0.8-0.43-1.3-0.9-1.62-1.21c-0.31-0.29-0.69-0.67-1.06-1.27c-0.24-0.38-0.38-0.71-0.45-0.88c-0.06-0.15-0.25-0.61-0.39-1.27
			c-0.04-0.21-0.13-0.66-0.17-1.38c-0.04-0.74-0.07-1.47,0.11-2.32c0.27-1.22,0.85-2.05,1.12-2.43c1.14-1.58,2.66-2.3,3.4-2.59
			c0.15-1.53,0.3-3.06,0.44-4.6c-0.7,0.14-1.39,0.33-2.06,0.58c-1.51,0.57-2.83,1.39-3.96,2.46c-1.13,1.07-2.03,2.35-2.69,3.85
			c-0.66,1.5-0.99,3.18-0.99,5.04c0,1.81,0.32,3.47,0.96,4.97c0.64,1.5,1.52,2.78,2.65,3.85c1.13,1.07,2.48,1.9,4.03,2.49
			c0.66,0.25,1.35,0.44,2.06,0.58C315.33,282.68,315.33,280.91,315.33,279.13z"/>
	</g>
</g>
<g class="st10">
	<g>
		<path d="M372.33,282.41c-0.64,0.51-1.39,0.96-2.26,1.36c-0.75,0.33-1.66,0.63-2.72,0.9c-1.06,0.28-2.28,0.42-3.64,0.42
			c-0.26,0-0.5-0.02-0.75-0.03c0-1.7,0-3.4,0-5.1c0.83,0.13,1.51,0.1,1.98,0.06c0.64-0.06,1.13-0.19,1.85-0.39
			c0.74-0.2,1.3-0.4,1.57-0.5c0.64-0.24,1.2-0.49,1.68-0.72C370.79,279.75,371.56,281.08,372.33,282.41z M362.95,265.19
			c0.33,0.05,0.83,0.13,1.43,0.25c1.21,0.24,1.82,0.36,2.6,0.66c0.72,0.28,1.28,0.6,1.68,0.83c0.49,0.28,0.88,0.54,1.17,0.74
			c0.72-1.49,1.43-2.97,2.15-4.46c-0.64-0.44-1.39-0.85-2.26-1.22c-0.76-0.32-1.66-0.61-2.71-0.87c-1.05-0.25-2.25-0.38-3.59-0.38
			c-0.16,0-0.31,0.01-0.47,0.02C362.95,262.23,362.95,263.71,362.95,265.19z M360.66,279.47c-0.35-0.1-0.84-0.26-1.38-0.55
			c-0.79-0.42-1.3-0.9-1.62-1.21c-0.31-0.29-0.69-0.67-1.06-1.27c-0.24-0.38-0.38-0.71-0.45-0.88c-0.06-0.15-0.25-0.61-0.39-1.27
			c-0.04-0.21-0.13-0.66-0.17-1.38c-0.04-0.74-0.07-1.47,0.11-2.31c0.27-1.22,0.85-2.05,1.12-2.42c1.14-1.58,2.66-2.3,3.4-2.59
			c0.15-1.53,0.3-3.06,0.44-4.59c-0.7,0.14-1.39,0.33-2.06,0.58c-1.51,0.57-2.83,1.39-3.96,2.45c-1.13,1.07-2.03,2.35-2.69,3.84
			c-0.66,1.5-0.99,3.17-0.99,5.03c0,1.81,0.32,3.46,0.96,4.96c0.64,1.5,1.52,2.78,2.65,3.84c1.13,1.07,2.48,1.9,4.03,2.49
			c0.66,0.25,1.35,0.44,2.06,0.58C360.66,283.01,360.66,281.24,360.66,279.47z"/>
	</g>
</g>
<g>
	<path d="M334.56,285.4c-1.52,0-3.05,0-4.57,0v-24.67c1.5,0,3,0,4.5,0C334.51,268.95,334.53,277.17,334.56,285.4z M341.52,272.5
		c2.47-3.91,4.94-7.82,7.4-11.72c-2.04-0.03-4.09-0.06-6.13-0.09c-1.15,1.26-2.3,2.52-3.45,3.78c0,5.43,0,10.86,0,16.28
		c1.15,1.42,2.3,2.84,3.45,4.26c1.97,0.09,3.94,0.17,5.91,0.26C346.31,281.01,343.92,276.76,341.52,272.5z"/>
	<path class="st10" d="M335.59,285.41c-1.52,0-3.05,0-4.57,0v-24.67c1.5,0,3,0,4.5,0C335.55,268.96,335.57,277.19,335.59,285.41z
		 M342.56,272.52c2.47-3.91,4.94-7.82,7.4-11.72c-2.04-0.03-4.09-0.06-6.13-0.09c-1.15,1.26-2.3,2.52-3.45,3.78
		c0,5.43,0,10.86,0,16.28c1.15,1.42,2.3,2.84,3.45,4.26c1.97,0.09,3.94,0.17,5.91,0.26C347.35,281.03,344.96,276.77,342.56,272.52z"
		/>
</g>
</svg>
